<?xml version="1.0" encoding="utf-8"?>
<!-- Generator: Adobe Illustrator 25.2.3, SVG Export Plug-In . SVG Version: 6.00 Build 0)  -->
<svg version="1.0" id="Capa_1" xmlns="http://www.w3.org/2000/svg" xmlns:xlink="http://www.w3.org/1999/xlink" x="0px" y="0px"
	 viewBox="0 0 500 500" style="enable-background:new 0 0 500 500;" xml:space="preserve">
<style type="text/css">
	.st0{fill:#056061;}
	.st1{fill:none;}
	.st2{font-family:'MontserratAlternates-Regular';}
	.st3{font-size:34px;}
	.st4{fill:#FFFFFF;}
	.st5{fill:#49BEB6;}
	.st6{fill:#4DB5AB;stroke:#4DB5AB;stroke-width:3;stroke-miterlimit:10;}
	.st7{fill:#4DB5AB;}
	.st8{fill:#FFFFFF;stroke:#4DB5AB;stroke-miterlimit:10;}
</style>
<rect x="87.1" y="-83.76" class="st1" width="373.86" height="167.52"/>
<text transform="matrix(1 0 0 1 87.1046 -58.5331)"><tspan x="0" y="0" class="st2 st3">Banco</tspan><tspan x="0" y="27" class="st2 st3">Universitario</tspan></text>
<g>
	<path class="st5" d="M25.15,270.18v-35.53c0.41-8.63,7.77-16.29,15.55-16.29h34.05c12.59,0,26.65,14.44,26.65,23.32
		c0,0,1.85,8.32-5.35,13.66c-6.32,4.69-48.32,24.83-48.32,24.83C39.22,284.25,25.15,279.44,25.15,270.18z"/>
	<rect x="108.81" y="217.8" class="st0" width="3.7" height="64.41"/>
	<g>
		<g>
			<path class="st0" d="M143.11,235.09c1.07,1.27,1.6,2.9,1.6,4.9c0,2.57-0.95,4.54-2.84,5.92c-1.9,1.38-4.7,2.07-8.4,2.07H119.7
				v-29.93h12.91c3.34,0,5.92,0.67,7.76,2.01c1.84,1.34,2.76,3.24,2.76,5.69c0,1.65-0.41,3.06-1.22,4.21
				c-0.81,1.15-1.93,2.02-3.36,2.59C140.53,232.98,142.04,233.83,143.11,235.09z M122.87,220.66v10.86h9.54
				c2.42,0,4.29-0.46,5.6-1.39c1.31-0.93,1.97-2.27,1.97-4.04c0-1.77-0.66-3.11-1.97-4.04c-1.31-0.93-3.18-1.39-5.6-1.39H122.87z
				 M139.5,244.01c1.37-0.91,2.05-2.34,2.05-4.28c0-3.74-2.71-5.6-8.12-5.6h-10.56v11.25h10.56
				C136.11,245.38,138.13,244.92,139.5,244.01z"/>
			<path class="st0" d="M173.22,221.2c2.24,2.27,3.36,5.54,3.36,9.81v16.98h-3.12v-8.81h-18.82v8.81h-3.08v-16.98
				c0-4.28,1.12-7.55,3.36-9.81c2.24-2.27,5.28-3.4,9.13-3.4C167.92,217.8,170.98,218.93,173.22,221.2z M173.46,236.44v-5.73
				c0-3.33-0.83-5.85-2.48-7.55c-1.65-1.7-3.96-2.54-6.93-2.54c-2.97,0-5.27,0.85-6.93,2.54c-1.65,1.7-2.48,4.21-2.48,7.55v5.73
				H173.46z"/>
			<path class="st0" d="M207.56,221c2.04,2.14,3.06,5.19,3.06,9.15v17.83h-3.17v-17.75c0-3.16-0.78-5.56-2.35-7.18
				c-1.57-1.62-3.76-2.44-6.59-2.44c-2.97,0-5.27,0.86-6.93,2.59c-1.65,1.73-2.48,4.31-2.48,7.76v17.02h-3.16v-29.93h3.04v5.05
				c1.91-3.53,5.29-5.3,10.13-5.3C202.7,217.8,205.52,218.87,207.56,221z"/>
			<path class="st0" d="M224.96,246.28c-2.38-1.31-4.25-3.13-5.6-5.45c-1.35-2.32-2.03-4.92-2.03-7.8c0-2.88,0.68-5.48,2.03-7.8
				c1.35-2.32,3.23-4.14,5.62-5.45c2.4-1.31,5.08-1.97,8.04-1.97c2.22,0,4.28,0.37,6.16,1.11c1.88,0.74,3.48,1.83,4.79,3.25
				l-2.01,2.01c-2.34-2.37-5.29-3.55-8.85-3.55c-2.37,0-4.52,0.54-6.46,1.62s-3.46,2.57-4.55,4.45c-1.1,1.88-1.65,3.99-1.65,6.33
				c0,2.34,0.55,4.45,1.65,6.33c1.1,1.88,2.62,3.36,4.55,4.45s4.09,1.62,6.46,1.62c3.59,0,6.54-1.2,8.85-3.59l2.01,2.01
				c-1.31,1.43-2.92,2.52-4.81,3.27c-1.9,0.76-3.96,1.13-6.18,1.13C230.02,248.24,227.34,247.59,224.96,246.28z"/>
			<path class="st0" d="M254.98,246.26c-2.41-1.33-4.29-3.14-5.65-5.45s-2.03-4.9-2.03-7.78c0-2.88,0.68-5.47,2.03-7.78
				s3.24-4.13,5.65-5.45c2.41-1.33,5.09-1.99,8.06-1.99c2.96,0,5.64,0.66,8.02,1.97c2.38,1.31,4.25,3.13,5.62,5.45
				c1.37,2.33,2.05,4.93,2.05,7.8c0,2.88-0.68,5.48-2.05,7.8c-1.37,2.32-3.24,4.14-5.62,5.45c-2.38,1.31-5.05,1.97-8.02,1.97
				C260.08,248.24,257.39,247.58,254.98,246.26z M269.46,243.82c1.91-1.07,3.41-2.55,4.49-4.45c1.08-1.9,1.62-4.01,1.62-6.35
				c0-2.34-0.54-4.45-1.62-6.35c-1.08-1.9-2.58-3.38-4.49-4.45c-1.91-1.07-4.05-1.6-6.41-1.6c-2.37,0-4.51,0.53-6.44,1.6
				c-1.92,1.07-3.44,2.55-4.53,4.45c-1.1,1.9-1.65,4.01-1.65,6.35c0,2.34,0.55,4.45,1.65,6.35c1.1,1.9,2.61,3.38,4.53,4.45
				c1.92,1.07,4.07,1.6,6.44,1.6C265.41,245.42,267.55,244.89,269.46,243.82z"/>
			<path class="st0" d="M143.95,252.01v29.93h-3.04v-5.05c-1.97,3.53-5.32,5.3-10.05,5.3c-3.56,0-6.36-1.07-8.38-3.21
				c-2.02-2.14-3.04-5.19-3.04-9.15v-17.83h3.17v17.75c0,3.17,0.78,5.56,2.33,7.19c1.55,1.62,3.73,2.44,6.52,2.44
				c2.94,0,5.22-0.86,6.86-2.59c1.64-1.72,2.46-4.31,2.46-7.76v-17.02H143.95z"/>
			<path class="st0" d="M175.19,254.96c2.04,2.14,3.06,5.19,3.06,9.15v17.83h-3.17V264.2c0-3.16-0.78-5.56-2.35-7.18
				c-1.57-1.62-3.76-2.44-6.59-2.44c-2.97,0-5.27,0.86-6.93,2.59c-1.65,1.73-2.48,4.31-2.48,7.76v17.02h-3.16v-29.93h3.04v5.05
				c1.91-3.53,5.29-5.3,10.13-5.3C170.33,251.76,173.15,252.82,175.19,254.96z"/>
			<path class="st0" d="M193.81,254.75v24.46h6.07v2.74h-15.27v-2.74h6.07v-24.46h-6.07v-2.74h15.27v2.74H193.81z"/>
			<path class="st0" d="M231.4,252.01l-13.26,29.93h-3.12l-13.26-29.93h3.42l11.46,26l11.55-26H231.4z"/>
			<path class="st0" d="M256.71,278.53c-1.23,1.17-2.86,2.07-4.9,2.72c-2.04,0.64-4.3,0.96-6.78,0.96c-2.62,0-4.85-0.36-6.69-1.07
				c-1.84-0.71-3.22-1.7-4.15-2.95c-0.93-1.25-1.39-2.69-1.39-4.32c0-1.8,0.53-3.32,1.6-4.58c1.07-1.25,2.47-2.12,4.21-2.61
				c-1.43-0.54-2.54-1.4-3.34-2.59c-0.8-1.18-1.2-2.57-1.2-4.17c0-1.51,0.43-2.89,1.3-4.13s2.18-2.22,3.93-2.95
				c1.75-0.73,3.87-1.09,6.35-1.09c1.83,0,3.6,0.21,5.32,0.62c1.72,0.41,3.2,1,4.43,1.77l-0.98,2.52c-2.62-1.48-5.5-2.22-8.64-2.22
				c-2.77,0-4.88,0.53-6.35,1.58c-1.47,1.05-2.2,2.42-2.2,4.1c0,1.68,0.59,2.98,1.77,3.89c1.18,0.91,2.86,1.37,5.02,1.37h7.44v2.74
				h-7.57c-2.45,0-4.39,0.46-5.82,1.39c-1.43,0.93-2.14,2.3-2.14,4.13c0,1.8,0.78,3.22,2.33,4.28c1.55,1.06,3.84,1.58,6.86,1.58
				c2.11,0,4.08-0.3,5.9-0.9c1.82-0.6,3.31-1.42,4.45-2.48L256.71,278.53z"/>
			<path class="st0" d="M282.76,281.95l-6.84-9.62c-0.77,0.09-1.57,0.13-2.4,0.13h-8.04v9.49h-3.16v-29.93h11.2
				c3.82,0,6.81,0.91,8.98,2.74c2.17,1.83,3.25,4.33,3.25,7.53c0,2.34-0.59,4.31-1.77,5.92s-2.87,2.77-5.07,3.48l7.31,10.26H282.76z
				 M280.23,267.79c1.57-1.31,2.35-3.15,2.35-5.52c0-2.42-0.78-4.28-2.35-5.58c-1.57-1.3-3.83-1.95-6.8-1.95h-7.95v15.01h7.95
				C276.4,269.76,278.67,269.1,280.23,267.79z"/>
			<path class="st0" d="M294.97,281.13c-2.04-0.71-3.61-1.65-4.73-2.82l1.24-2.44c1.08,1.08,2.52,1.96,4.32,2.63
				c1.8,0.67,3.65,1,5.56,1c2.68,0,4.69-0.49,6.03-1.48c1.34-0.98,2.01-2.26,2.01-3.83c0-1.2-0.36-2.15-1.09-2.86
				s-1.62-1.26-2.67-1.65c-1.06-0.38-2.52-0.8-4.4-1.26c-2.25-0.57-4.05-1.12-5.39-1.65s-2.49-1.33-3.44-2.42
				c-0.96-1.08-1.43-2.55-1.43-4.4c0-1.51,0.4-2.89,1.2-4.13c0.8-1.24,2.02-2.23,3.68-2.97c1.65-0.74,3.71-1.11,6.16-1.11
				c1.71,0,3.39,0.23,5.02,0.71c1.64,0.47,3.06,1.12,4.25,1.95l-1.07,2.52c-1.25-0.83-2.59-1.45-4.02-1.86
				c-1.43-0.41-2.82-0.62-4.19-0.62c-2.62,0-4.6,0.51-5.92,1.52c-1.33,1.01-1.99,2.32-1.99,3.91c0,1.2,0.36,2.16,1.09,2.89
				c0.73,0.73,1.64,1.28,2.74,1.67c1.1,0.38,2.57,0.81,4.43,1.26c2.19,0.54,3.97,1.08,5.32,1.6c1.35,0.53,2.5,1.33,3.44,2.39
				c0.94,1.07,1.41,2.52,1.41,4.34c0,1.51-0.41,2.89-1.22,4.13c-0.81,1.24-2.06,2.22-3.74,2.95c-1.68,0.73-3.75,1.09-6.2,1.09
				C299.13,282.2,297,281.85,294.97,281.13z"/>
			<path class="st0" d="M325.48,254.75v24.46h6.07v2.74h-15.27v-2.74h6.07v-24.46h-6.07v-2.74h15.27v2.74H325.48z"/>
			<path class="st0" d="M357.08,257.53c-2.94-1.71-6.19-2.69-9.75-2.95v27.37h-3.17v-27.37c-3.51,0.23-6.77,1.21-9.79,2.95
				l-1.15-2.48c3.71-2.19,7.87-3.29,12.49-3.29c4.7,0,8.88,1.1,12.53,3.29L357.08,257.53z"/>
			<path class="st0" d="M383.87,255.16c2.24,2.27,3.36,5.54,3.36,9.81v16.98h-3.12v-8.81h-18.82v8.81h-3.08v-16.98
				c0-4.28,1.12-7.55,3.36-9.81c2.24-2.27,5.28-3.4,9.13-3.4C378.57,251.76,381.63,252.89,383.87,255.16z M384.11,270.4v-5.73
				c0-3.33-0.83-5.85-2.48-7.55c-1.65-1.7-3.96-2.54-6.93-2.54c-2.97,0-5.27,0.85-6.93,2.54c-1.65,1.7-2.48,4.21-2.48,7.55v5.73
				H384.11z"/>
			<path class="st0" d="M417.03,281.95l-6.84-9.62c-0.77,0.09-1.57,0.13-2.4,0.13h-8.04v9.49h-3.16v-29.93h11.2
				c3.82,0,6.81,0.91,8.98,2.74c2.17,1.83,3.25,4.33,3.25,7.53c0,2.34-0.59,4.31-1.77,5.92c-1.18,1.61-2.87,2.77-5.07,3.48
				l7.31,10.26H417.03z M414.51,267.79c1.57-1.31,2.35-3.15,2.35-5.52c0-2.42-0.78-4.28-2.35-5.58c-1.57-1.3-3.83-1.95-6.8-1.95
				h-7.95v15.01h7.95C410.67,269.76,412.94,269.1,414.51,267.79z"/>
			<path class="st0" d="M433.58,254.75v24.46h6.07v2.74h-15.27v-2.74h6.07v-24.46h-6.07v-2.74h15.27v2.74H433.58z"/>
			<path class="st0" d="M451.09,280.21c-2.41-1.33-4.29-3.14-5.65-5.45s-2.03-4.9-2.03-7.78c0-2.88,0.68-5.47,2.03-7.78
				c1.35-2.31,3.24-4.13,5.65-5.45c2.41-1.33,5.09-1.99,8.06-1.99c2.96,0,5.64,0.66,8.02,1.97c2.38,1.31,4.25,3.13,5.62,5.45
				c1.37,2.33,2.05,4.93,2.05,7.8c0,2.88-0.68,5.48-2.05,7.8c-1.37,2.32-3.24,4.14-5.62,5.45c-2.38,1.31-5.05,1.97-8.02,1.97
				C456.19,282.2,453.5,281.54,451.09,280.21z M465.57,277.78c1.91-1.07,3.41-2.55,4.49-4.45c1.08-1.9,1.62-4.01,1.62-6.35
				c0-2.34-0.54-4.45-1.62-6.35c-1.08-1.9-2.58-3.38-4.49-4.45c-1.91-1.07-4.05-1.6-6.41-1.6c-2.37,0-4.51,0.53-6.44,1.6
				c-1.92,1.07-3.44,2.55-4.53,4.45c-1.1,1.9-1.65,4.01-1.65,6.35c0,2.34,0.55,4.45,1.65,6.35c1.1,1.9,2.61,3.38,4.53,4.45
				c1.92,1.07,4.07,1.6,6.44,1.6C461.52,279.38,463.66,278.85,465.57,277.78z"/>
		</g>
	</g>
</g>
</svg>
